<?xml version="1.0" encoding="UTF-8" standalone="no"?>
<!-- Created with Inkscape (http://www.inkscape.org/) -->

<svg
   xmlns:dc="http://purl.org/dc/elements/1.1/"
   xmlns:cc="http://creativecommons.org/ns#"
   xmlns:rdf="http://www.w3.org/1999/02/22-rdf-syntax-ns#"
   xmlns:svg="http://www.w3.org/2000/svg"
   xmlns="http://www.w3.org/2000/svg"
   xmlns:sodipodi="http://sodipodi.sourceforge.net/DTD/sodipodi-0.dtd"
   xmlns:inkscape="http://www.inkscape.org/namespaces/inkscape"
   width="210mm"
   height="297mm"
   viewBox="0 0 210 297"
   version="1.1"
   id="svg8"
   inkscape:version="0.92.3 (2405546, 2018-03-11)"
   sodipodi:docname="Welcome Screen Graphic.svg">
  <defs
     id="defs2" />
  <sodipodi:namedview
     id="base"
     pagecolor="#ffffff"
     bordercolor="#ffffff"
     borderopacity="1.0"
     inkscape:pageopacity="0.0"
     inkscape:pageshadow="2"
     inkscape:zoom="0.9899495"
     inkscape:cx="-88.4303"
     inkscape:cy="673.55521"
     inkscape:document-units="mm"
     inkscape:current-layer="layer1"
     showgrid="false"
     inkscape:window-width="1920"
     inkscape:window-height="1017"
     inkscape:window-x="1912"
     inkscape:window-y="-1"
     inkscape:window-maximized="1" />
  <metadata
     id="metadata5">
    <rdf:RDF>
      <cc:Work
         rdf:about="">
        <dc:format>image/svg+xml</dc:format>
        <dc:type
           rdf:resource="http://purl.org/dc/dcmitype/StillImage" />
        <dc:title></dc:title>
      </cc:Work>
    </rdf:RDF>
  </metadata>
  <g
     inkscape:label="Layer 1"
     inkscape:groupmode="layer"
     id="layer1">
    <path
       style="fill:#b86f07;stroke:#905b0f;stroke-width:0.604;stroke-linecap:butt;stroke-linejoin:miter;stroke-opacity:1;fill-opacity:1;stroke-miterlimit:4;stroke-dasharray:none"
       d="m 77.6221,-55.610405 15.16998,20.051343 C 38.457566,145.82554 -273.05661,206.89007 -273.05661,206.89007 -268.70575,202.99798 18.45051,91.424457 77.6221,-55.610405 Z"
       id="path8455"
       inkscape:connector-curvature="0"
       sodipodi:nodetypes="cccc" />
    <path
       style="fill:#cb9343;stroke:#905b0f;stroke-width:0.4;stroke-linecap:butt;stroke-linejoin:miter;stroke-opacity:1;fill-opacity:1;stroke-miterlimit:4;stroke-dasharray:none"
       d="M 88.863182,-24.068984 C 109.15762,4.2814945 44.886031,198.96761 -45.40165,204.60071 -15.485876,189.60306 78.906334,53.076463 73.23185,8.8834493 78.362131,-1.6197197 82.392717,-5.5247129 88.863182,-24.068984 Z"
       id="path8459"
       inkscape:connector-curvature="0"
       sodipodi:nodetypes="cccc" />
    <path
       style="fill:#cb9343;stroke:#905b0f;stroke-width:0.4;stroke-linecap:butt;stroke-linejoin:miter;stroke-opacity:1;stroke-miterlimit:4;stroke-dasharray:none;fill-opacity:1"
       d="m 51.383578,121.80266 c 22.296048,-0.72126 41.604927,-5.29159 46.89023,-17.9485 -3.434938,24.19391 -28.068817,32.69145 -56.613227,34.11934 m -27.619979,-0.48708 c -35.608429,-2.64056 -68.941643,-11.70964 -68.941643,-11.70964 6.036998,-3.8217 12.833142,-8.02297 20.883184,-12.85119 0,0 28.4165614,6.10228 59.050318,8.24734"
       id="path8461"
       inkscape:connector-curvature="0"
       sodipodi:nodetypes="ccccccc" />
    <path
       style="fill:#cb9343;fill-opacity:1;stroke:#905b0f;stroke-width:0.40000001;stroke-linecap:butt;stroke-linejoin:miter;stroke-miterlimit:4;stroke-dasharray:none;stroke-opacity:1"
       d="m -81.12314,139.66741 c 0,0 -20.97021,68.77246 -84.43043,68.60268 46.54109,-17.06757 70.507333,-57.789 70.398065,-61.75326 z"
       id="path8465"
       inkscape:connector-curvature="0"
       sodipodi:nodetypes="cccc" />
    <path
       style="fill:#cb9343;fill-opacity:1;stroke:#905b0f;stroke-width:0.40000001;stroke-linecap:butt;stroke-linejoin:miter;stroke-miterlimit:4;stroke-dasharray:none;stroke-opacity:1"
       d="m -148.92262,169.62202 c 0,0 -30.23809,8.59896 -6.04761,33.54539 -20.03274,-0.37799 -28.06473,-21.26116 -28.06473,-21.26116 11.00756,-3.2158 19.96678,-7.24876 34.11234,-12.28423 z"
       id="path8467"
       inkscape:connector-curvature="0"
       sodipodi:nodetypes="cccc" />
    <path
       style="fill:#7e571f;stroke:#905b0f;stroke-width:0.26458332px;stroke-linecap:butt;stroke-linejoin:miter;stroke-opacity:1;fill-opacity:1"
       d="m -134.61328,187.58235 c 0.71787,0.81594 1.33784,1.69921 1.83568,2.65528 l 2.07134,-1.43489 c 0,0 -1.02465,-1.26956 -3.03317,-2.98453 m -2.19457,-1.73107 c -4.94659,-3.60613 -13.33983,-7.86996 -24.9069,-7.2798 l -0.73499,1.00226 c 0,0 16.26554,0.80616 24.90652,7.81174"
       id="path12962"
       inkscape:connector-curvature="0"
       sodipodi:nodetypes="cccccccc" />
    <path
       style="fill:#7e571f;fill-opacity:1;stroke:#905b0f;stroke-width:0.26458332px;stroke-linecap:butt;stroke-linejoin:miter;stroke-opacity:1"
       d="m -123.32292,170.02811 c 4.62832,-1.01286 8.66381,-0.86096 11.39472,1.20031 l 1.03944,-1.03943 c -1.80625,-2.52607 -5.60707,-3.16688 -10.46472,-2.51088 m -5.96249,1.28251 c -5.81677,1.64072 -12.40825,4.4694 -18.68128,7.80009 l -1.06581,1.73735 2.34168,0.83612 c 5.06305,-2.9337 10.58497,-5.7586 15.76549,-7.6375 m -21.85642,7.73228 c -5.01142,2.95396 -9.74128,6.23437 -13.27661,9.23361 l 0.8977,2.88207 c 0,0 2.72473,-2.07331 6.96085,-4.9506 1.41551,-1.42314 3.63351,-4.27292 5.82941,-7.08342 z m 1.46074,2.68829 c 0.81148,-0.50465 1.64422,-1.01394 2.49409,-1.52355 l -1.25269,-0.39743 z"
       id="path12964"
       inkscape:connector-curvature="0"
       sodipodi:nodetypes="ccccccccccccccccccc" />
    <path
       style="fill:#7e571f;fill-opacity:1;stroke:#905b0f;stroke-width:0.26458332px;stroke-linecap:butt;stroke-linejoin:miter;stroke-opacity:1"
       d="m -132.41042,183.45422 c 1.15242,1.3101 2.19184,2.70137 3.05197,4.16572 l 1.5368,-0.93544 c -1.38005,-1.76086 -2.64176,-3.29202 -3.80835,-4.63162 m -2.10262,-2.31878 c -1.59106,-1.67714 -2.99944,-2.97395 -4.30467,-4.02101 l -1.9217,1.05637 c 1.85129,1.32848 3.73384,2.84176 5.47325,4.51855 m -10.90496,-9.96314 c -1.10835,-0.52134 -2.26551,-1.05589 -3.53192,-1.70285 l -2.15148,0.75904 c -0.13444,-0.0855 1.90324,0.77234 4.84786,2.41923 m 1.76181,1.01942 c 0.62924,0.37648 1.28361,0.78157 1.95386,1.21414 l 2.09464,-1.04451 c -1.09847,-0.71281 -2.15323,-1.28721 -3.22433,-1.82178 z"
       id="path12966"
       inkscape:connector-curvature="0"
       sodipodi:nodetypes="ccccccccccccccccc" />
    <path
       style="fill:#7e571f;stroke:#905b0f;stroke-width:0.26458332px;stroke-linecap:butt;stroke-linejoin:miter;stroke-opacity:1;fill-opacity:1"
       d="m -150.40096,179.51062 c -3.9236,5.56191 -7.99997,9.62673 -12.08155,13.64042 l 1.88834,3.00114 c 1.21267,-0.84677 6.49093,-6.91188 11.18907,-13.9621 0.43794,-0.65719 0.87084,-1.32293 1.29493,-1.99381 m 1.04711,-1.69821 c 2.35713,-3.9245 4.31237,-7.92469 5.133,-11.33288 l -1.74814,0.7087 c -1.82149,3.85572 -3.70119,7.14085 -5.62143,10.02883"
       id="path12968"
       inkscape:connector-curvature="0"
       sodipodi:nodetypes="cccsccccc" />
    <path
       style="fill:#7e571f;stroke:#905b0f;stroke-width:0.26458332px;stroke-linecap:butt;stroke-linejoin:miter;stroke-opacity:1;fill-opacity:1"
       d="m -124.55125,171.54698 c 1.25106,4.83312 1.82373,9.97067 -0.51162,12.48538 0.0473,-0.0472 -1.70089,1.79539 -1.70089,1.79539 0.25246,0.78262 1.49206,-5.35066 0.66142,-12.34548 m -0.92439,-4.83658 c -0.63365,-2.32128 -1.56516,-4.587 -2.90258,-6.58319 0.18899,0.0472 1.84263,-0.75595 1.84263,-0.75595 -0.0101,0.0338 1.06365,2.41644 2.17801,5.67528"
       id="path12970"
       inkscape:connector-curvature="0"
       sodipodi:nodetypes="cccccccc" />
    <path
       style="fill:#7e571f;fill-opacity:1;stroke:#905b0f;stroke-width:0.26458332px;stroke-linecap:butt;stroke-linejoin:miter;stroke-opacity:1"
       d="m -143.86888,181.61982 c -3.14658,6.93475 -5.81467,14.45197 -6.47023,19.84803 -0.0668,0.13363 -1.93771,0.91874 -1.93771,0.91874 0,0 2.55818,-11.20443 6.49404,-21.53519 m 2.19185,-5.29026 c 0.0763,-0.16795 0.81433,-0.40587 0.89129,-0.57195 0.0743,-0.16033 -0.51253,-0.24888 -0.43759,-0.40735 z m 1.31394,-2.7162 c 2.343,-4.57743 4.92585,-8.01953 7.66289,-8.84256 -0.20045,-0.13364 2.09567,-0.54601 2.09567,-0.54601 -1.62853,0.74448 -4.47682,4.76682 -7.4746,10.29773 l -0.4229,0.23524 z m 0.17931,5.03255 c -0.64407,0.42288 -2.47237,1.41061 -2.44412,1.4059 -0.0349,0.0161 1.27749,0.47436 1.44359,0.66961 z"
       id="path12972"
       inkscape:connector-curvature="0"
       sodipodi:nodetypes="cccccscccccccccccc" />
    <path
       style="fill:#7e571f;stroke:#905b0f;stroke-width:0.265;stroke-linecap:butt;stroke-linejoin:miter;stroke-opacity:1;fill-opacity:1;stroke-miterlimit:4;stroke-dasharray:none"
       d="m -114.3957,159.7881 c -7.73502,8.15266 -18.39485,20.72978 -22.24269,33.26844 l -4.7247,3.02382 c 0,0 11.07734,-27.59945 23.20278,-38.03928 m 1.77205,-1.39389 c 0.96511,-0.68554 1.93374,-1.25017 2.90091,-1.67175 8.13481,-3.54585 6.61458,-2.83482 6.61458,-2.83482 -1.25168,1.28551 -3.4061,3.37931 -6.01775,6.0772"
       id="path12974"
       inkscape:connector-curvature="0"
       sodipodi:nodetypes="cccccccc" />
    <path
       style="fill:#7e571f;stroke:#905b0f;stroke-width:0.26458332px;stroke-linecap:butt;stroke-linejoin:miter;stroke-opacity:1;fill-opacity:1"
       d="m -119.5363,157.68576 c 0,0 9.81406,1.70958 10.28178,10.59629 l 2.30017,-2.63692 c 0.78423,1.3361 -3.76965,-8.62812 -10.20993,-9.02845 z"
       id="path12976"
       inkscape:connector-curvature="0"
       sodipodi:nodetypes="ccccc" />
    <path
       style="fill:#7e571f;stroke:#905b0f;stroke-width:0.26458332px;stroke-linecap:butt;stroke-linejoin:miter;stroke-opacity:1;fill-opacity:1"
       d="m -112.02348,161.79096 c -1.83804,3.79291 -3.55748,8.66651 -4.67667,14.77637 l 1.84264,-1.70089 c -0.3417,0.24602 1.37292,-5.3755 4.08506,-11.45937 m 1.01712,-2.19976 c 2.65249,-5.52597 6.01541,-10.90018 9.30816,-12.13774 l -3.02382,1.70089 c -0.80218,0.26739 -4.26677,3.03042 -7.61185,9.18766"
       id="path12978"
       inkscape:connector-curvature="0"
       sodipodi:nodetypes="cccccccc" />
    <path
       style="fill:none;stroke:#000000;stroke-width:0.26458332px;stroke-linecap:butt;stroke-linejoin:miter;stroke-opacity:1"
       d="m 17.670386,74.466518 c 0,0 5.480655,20.079985 -20.0327373,43.892482 l 7.3705357,0.8977 c 0,0 23.2927826,-31.0413 16.1112346,-47.672251 z"
       id="path12973"
       inkscape:connector-curvature="0"
       sodipodi:nodetypes="ccccc" />
    <path
       style="fill:none;stroke:#000000;stroke-width:0.26458332px;stroke-linecap:butt;stroke-linejoin:miter;stroke-opacity:1"
       d="m 64.671118,22.670758 c 0,0 2.92604,1.752727 7.095616,3.74866 L 69.906976,33.16231 C 66.06158,31.224014 62.857639,28.935798 61.605625,27.057778 Z"
       id="path12975"
       inkscape:connector-curvature="0"
       sodipodi:nodetypes="ccccc" />
  </g>
</svg>
